<svg width="48" height="48" viewBox="0 0 48 48" fill="none" xmlns="http://www.w3.org/2000/svg">
<path d="M21.6 8.65967L22.6195 7.62807C22.4858 7.49238 22.3269 7.38473 22.1519 7.31127C21.977 7.23782 21.7894 7.20001 21.6 7.20001C21.4106 7.20001 21.2231 7.23782 21.0481 7.31127C20.8732 7.38473 20.7143 7.49238 20.5805 7.62807L21.6 8.65967ZM21.6 8.65967L20.5805 7.62807L20.5776 7.63099C20.5776 7.63682 20.5719 7.63973 20.569 7.64265L20.5373 7.6747L20.4221 7.79418L19.993 8.24878C17.7992 10.6323 15.7761 13.1711 13.9392 15.8458C10.6647 20.622 7.20001 27.1292 7.20001 33.4295H10.08C10.08 28.0705 13.0954 22.1927 16.3037 17.504C18.1706 14.7904 20.2376 12.2235 22.4871 9.82531L22.5879 9.7204L22.6109 9.69709L22.6167 9.69126L21.6 8.65967ZM36 33.4295C36 27.1321 32.5354 20.625 29.2637 15.8429C27.4257 13.1691 25.4017 10.6313 23.2071 8.24878L22.7779 7.79418L22.6627 7.6747L22.6339 7.64265L22.6224 7.6339L22.6195 7.62807L21.6 8.65967L20.5805 9.68834L20.5863 9.69709L20.6122 9.7204C20.7813 9.89128 20.9465 10.0662 21.1075 10.2449C23.2048 12.5216 25.1393 14.9464 26.8963 17.501C30.1047 22.1957 33.12 28.0734 33.12 33.4295H36ZM33.12 33.4295C33.12 36.521 31.9063 39.4858 29.7459 41.6718C27.5855 43.8578 24.6553 45.0859 21.6 45.0859V48C25.4191 48 29.0818 46.4649 31.7823 43.7324C34.4829 40.9999 36 37.2938 36 33.4295H33.12ZM21.6 45.0859C18.5447 45.0859 15.6146 43.8578 13.4541 41.6718C11.2937 39.4858 10.08 36.521 10.08 33.4295H7.20001C7.20001 37.2938 8.71715 40.9999 11.4177 43.7324C14.1182 46.4649 17.7809 48 21.6 48V45.0859Z" fill="white"/>
<rect x="31.2" width="9.6" height="9.6" rx="4.8" fill="white"/>
</svg>
