<svg width="48" height="48" viewBox="0 0 48 48" fill="none" xmlns="http://www.w3.org/2000/svg">
<path d="M24.375 42C34.6613 42 43 33.6613 43 23.375C43 13.0887 34.6613 4.75 24.375 4.75C14.0887 4.75 5.75 13.0887 5.75 23.375C5.75 33.6613 14.0887 42 24.375 42Z" stroke="white"/>
<path d="M24.3749 29.9485C28.0054 29.9485 30.9485 27.0054 30.9485 23.3749C30.9485 19.7445 28.0054 16.8014 24.3749 16.8014C20.7445 16.8014 17.8014 19.7445 17.8014 23.3749C17.8014 27.0054 20.7445 29.9485 24.3749 29.9485Z" stroke="white"/>
<path d="M30.9485 23.3749L32.3202 21.76C34.1805 19.5732 37.7499 21.0917 37.4651 23.949C37.1561 27.0342 41.2317 28.419 42.8663 25.7808L43 25.5661M17.8015 23.3749L17.4136 25.5793C16.8001 29.0567 11.8349 29.1333 11.114 25.6757L10.7393 23.8745C10.2134 21.3569 6.76232 21.0128 5.75 23.3749" stroke="white"/>
<path d="M18.897 12.4191C19.5021 12.4191 19.9926 11.9286 19.9926 11.3236C19.9926 10.7185 19.5021 10.228 18.897 10.228C18.2919 10.228 17.8014 10.7185 17.8014 11.3236C17.8014 11.9286 18.2919 12.4191 18.897 12.4191Z" stroke="white"/>
<path d="M34.2353 16.8015C34.8404 16.8015 35.3309 16.311 35.3309 15.7059C35.3309 15.1008 34.8404 14.6103 34.2353 14.6103C33.6302 14.6103 33.1397 15.1008 33.1397 15.7059C33.1397 16.311 33.6302 16.8015 34.2353 16.8015Z" stroke="white"/>
<path d="M27.6618 10.2279C28.2669 10.2279 28.7574 9.73741 28.7574 9.13233C28.7574 8.52725 28.2669 8.03674 27.6618 8.03674C27.0567 8.03674 26.5662 8.52725 26.5662 9.13233C26.5662 9.73741 27.0567 10.2279 27.6618 10.2279Z" stroke="white"/>
</svg>
