<svg width="20" height="20" viewBox="0 0 20 20" fill="none" xmlns="http://www.w3.org/2000/svg">
<path d="M4.80769 8.61538C5.30773 8.61538 5.80286 8.5169 6.26483 8.32554C6.7268 8.13419 7.14656 7.85371 7.50014 7.50014C7.85371 7.14656 8.13419 6.7268 8.32554 6.26483C8.5169 5.80286 8.61538 5.30773 8.61538 4.80769C8.61538 4.30766 8.5169 3.81252 8.32554 3.35055C8.13419 2.88858 7.85371 2.46882 7.50014 2.11525C7.14656 1.76167 6.7268 1.4812 6.26483 1.28984C5.80286 1.09849 5.30773 1 4.80769 1C3.79783 1 2.82933 1.40117 2.11525 2.11525C1.40117 2.82933 1 3.79783 1 4.80769C1 5.81756 1.40117 6.78606 2.11525 7.50014C2.82933 8.21422 3.79783 8.61538 4.80769 8.61538ZM15.1923 8.61538C15.6923 8.61538 16.1875 8.5169 16.6494 8.32554C17.1114 8.13419 17.5312 7.85371 17.8848 7.50014C18.2383 7.14656 18.5188 6.7268 18.7102 6.26483C18.9015 5.80286 19 5.30773 19 4.80769C19 4.30766 18.9015 3.81252 18.7102 3.35055C18.5188 2.88858 18.2383 2.46882 17.8848 2.11525C17.5312 1.76167 17.1114 1.4812 16.6494 1.28984C16.1875 1.09849 15.6923 1 15.1923 1C14.1824 1 13.2139 1.40117 12.4999 2.11525C11.7858 2.82933 11.3846 3.79783 11.3846 4.80769C11.3846 5.81756 11.7858 6.78606 12.4999 7.50014C13.2139 8.21422 14.1824 8.61538 15.1923 8.61538ZM4.80769 19C5.81756 19 6.78606 18.5988 7.50014 17.8848C8.21422 17.1707 8.61538 16.2022 8.61538 15.1923C8.61538 14.1824 8.21422 13.2139 7.50014 12.4999C6.78606 11.7858 5.81756 11.3846 4.80769 11.3846C3.79783 11.3846 2.82933 11.7858 2.11525 12.4999C1.40117 13.2139 1 14.1824 1 15.1923C1 16.2022 1.40117 17.1707 2.11525 17.8848C2.82933 18.5988 3.79783 19 4.80769 19ZM15.1923 19C16.2022 19 17.1707 18.5988 17.8848 17.8848C18.5988 17.1707 19 16.2022 19 15.1923C19 14.1824 18.5988 13.2139 17.8848 12.4999C17.1707 11.7858 16.2022 11.3846 15.1923 11.3846C14.1824 11.3846 13.2139 11.7858 12.4999 12.4999C11.7858 13.2139 11.3846 14.1824 11.3846 15.1923C11.3846 16.2022 11.7858 17.1707 12.4999 17.8848C13.2139 18.5988 14.1824 19 15.1923 19Z" stroke="black" stroke-width="1.5" stroke-linecap="round" stroke-linejoin="round"/>
</svg>
