<svg width="32" height="32" viewBox="0 0 32 32" fill="none" xmlns="http://www.w3.org/2000/svg">
<rect width="32" height="32" rx="16" fill="#94AFFF"/>
<path d="M16 8L15.25 8.84C15.25 8.84 13.97 10.29 12.68 12.17C11.39 14.05 10 16.3 10 18.46C10 20.0513 10.6321 21.5774 11.7574 22.7026C12.8826 23.8279 14.4087 24.46 16 24.46C17.5913 24.46 19.1174 23.8279 20.2426 22.7026C21.3679 21.5774 22 20.0513 22 18.46C22 16.3 20.61 14.05 19.32 12.17C18.5243 11.0142 17.6664 9.90259 16.75 8.84L16 8ZM16 11.13C16.44 11.65 16.84 12.08 17.68 13.3C18.89 15.06 20 17.3 20 18.46C20 20.68 18.22 22.46 16 22.46C13.78 22.46 12 20.68 12 18.46C12 17.3 13.11 15.06 14.32 13.3C15.16 12.08 15.56 11.65 16 11.13Z" fill="black"/>
</svg>
