<svg width="48" height="48" viewBox="0 0 48 48" fill="none" xmlns="http://www.w3.org/2000/svg">
<path d="M37.8229 25.8659L26.0589 39.4462L24.8089 40.6814C24.6013 40.8865 24.3238 41 24.0365 41C23.7589 41 23.4905 40.8941 23.2854 40.7019L10.2454 25.8607L10.2312 25.8445L10.2164 25.829C4.65471 20.0223 5.11671 12.9398 8.58455 8.66714L8.59031 8.66005L8.59593 8.65285C9.44396 7.56811 10.5132 6.68072 11.7307 6.05049C12.9423 5.42328 14.2727 5.06527 15.6324 5.00014C18.4588 4.98662 21.2044 5.95728 23.4049 7.74995L24.0211 8.252L24.6493 7.76492C27.1998 5.78715 29.9242 5.00503 32.4438 5.00029C33.8023 5.06583 35.1316 5.42377 36.3423 6.05049C37.5597 6.68072 38.629 7.56811 39.477 8.65285L39.4826 8.66005L39.4884 8.66714C42.9367 12.9157 43.2361 19.8027 37.8328 25.8547L37.8278 25.8603L37.8229 25.8659Z" stroke="white" stroke-width="2"/>
</svg>
