<svg width="28" height="28" viewBox="0 0 28 28" fill="none" xmlns="http://www.w3.org/2000/svg">
<rect width="28" height="28" rx="14" fill="#566AB3"/>
<path d="M16.4 10.4C16.16 10.4 16 10.56 16 10.8V13.6H12V10.8C12 10.56 11.84 10.4 11.6 10.4C11.36 10.4 11.2 10.56 11.2 10.8V17.2C11.2 17.44 11.36 17.6 11.6 17.6C11.84 17.6 12 17.44 12 17.2V14.4H16V17.2C16 17.44 16.16 17.6 16.4 17.6C16.64 17.6 16.8 17.44 16.8 17.2V10.8C16.8 10.56 16.64 10.4 16.4 10.4ZM14 6C9.6 6 6 9.6 6 14C6 18.4 9.6 22 14 22C18.4 22 22 18.4 22 14C22 9.6 18.4 6 14 6ZM14 21.2C10 21.2 6.8 18 6.8 14C6.8 10 10 6.8 14 6.8C18 6.8 21.2 10 21.2 14C21.2 18 18 21.2 14 21.2Z" fill="white"/>
</svg>
