<svg width="18" height="18" viewBox="0 0 18 18" fill="none" xmlns="http://www.w3.org/2000/svg">
<path d="M8.15625 14.0625H9.84375V9.84375H14.0625V8.15625H9.84375V3.9375H8.15625V8.15625H3.9375V9.84375H8.15625V14.0625ZM1.81687 18C1.29937 18 0.867375 17.8267 0.520875 17.4802C0.173625 17.133 0 16.7006 0 16.1831V1.81687C0 1.29937 0.173625 0.867375 0.520875 0.520875C0.867375 0.173625 1.29937 0 1.81687 0H16.1831C16.7006 0 17.1326 0.173625 17.4791 0.520875C17.8264 0.867375 18 1.29937 18 1.81687V16.1831C18 16.7006 17.8267 17.1326 17.4802 17.4791C17.133 17.8264 16.7006 18 16.1831 18H1.81687ZM1.81687 16.875H16.1831C16.3556 16.875 16.5142 16.803 16.659 16.659C16.803 16.5142 16.875 16.3556 16.875 16.1831V1.81687C16.875 1.64437 16.803 1.48575 16.659 1.341C16.5142 1.197 16.3556 1.125 16.1831 1.125H1.81687C1.64437 1.125 1.48575 1.197 1.341 1.341C1.197 1.48575 1.125 1.64437 1.125 1.81687V16.1831C1.125 16.3556 1.197 16.5142 1.341 16.659C1.48575 16.803 1.64437 16.875 1.81687 16.875Z" fill="black"/>
</svg>
