<svg width="22" height="22" viewBox="0 0 22 22" fill="none" xmlns="http://www.w3.org/2000/svg">
<path d="M3.14286 14.9286V14.1429H1.57143V14.9286C1.57143 16.3873 2.15089 17.7862 3.18234 18.8177C4.21379 19.8491 5.61274 20.4286 7.07143 20.4286H9.42857V18.8571H7.07143C6.02951 18.8571 5.03026 18.4432 4.29351 17.7065C3.55676 16.9697 3.14286 15.9705 3.14286 14.9286ZM17.2857 7.07143V7.85714H18.8571V7.07143C18.8571 5.61274 18.2777 4.21379 17.2462 3.18234C16.2148 2.15089 14.8158 1.57143 13.3571 1.57143H11V3.14286H13.3571C13.873 3.14286 14.3839 3.24447 14.8605 3.4419C15.3372 3.63933 15.7703 3.92871 16.1351 4.29351C16.4999 4.65831 16.7892 5.09139 16.9867 5.56803C17.1841 6.04467 17.2857 6.55552 17.2857 7.07143ZM7.07143 7.07143H2.35714C1.73199 7.07143 1.13244 7.31977 0.690391 7.76182C0.248341 8.20387 0 8.80342 0 9.42857V11H1.57143V9.42857C1.57143 9.22019 1.65421 9.02034 1.80156 8.87299C1.94891 8.72564 2.14876 8.64286 2.35714 8.64286H7.07143C7.27981 8.64286 7.47966 8.72564 7.62701 8.87299C7.77436 9.02034 7.85714 9.22019 7.85714 9.42857V11H9.42857V9.42857C9.42857 8.80342 9.18023 8.20387 8.73818 7.76182C8.29613 7.31977 7.69658 7.07143 7.07143 7.07143ZM4.71429 6.28572C5.33588 6.28572 5.94352 6.10139 6.46036 5.75605C6.9772 5.41071 7.38003 4.91986 7.61791 4.34558C7.85578 3.7713 7.91802 3.13937 7.79675 2.52972C7.67549 1.92006 7.37616 1.36006 6.93662 0.920523C6.49709 0.480986 5.93708 0.181658 5.32743 0.0603905C4.71777 -0.0608773 4.08585 0.00136174 3.51157 0.239237C2.93728 0.477113 2.44644 0.87994 2.1011 1.39678C1.75575 1.91362 1.57143 2.52126 1.57143 3.14286C1.57143 3.9764 1.90255 4.77579 2.49195 5.36519C3.08135 5.95459 3.88075 6.28572 4.71429 6.28572ZM4.71429 1.57143C5.02508 1.57143 5.3289 1.66359 5.58732 1.83626C5.84574 2.00893 6.04716 2.25436 6.1661 2.5415C6.28503 2.82864 6.31615 3.1446 6.25552 3.44943C6.19489 3.75426 6.04522 4.03426 5.82545 4.25403C5.60568 4.47379 5.32568 4.62346 5.02086 4.68409C4.71603 4.74473 4.40007 4.71361 4.11293 4.59467C3.82578 4.47573 3.58036 4.27432 3.40769 4.0159C3.23502 3.75748 3.14286 3.45366 3.14286 3.14286C3.14286 2.72609 3.30842 2.32639 3.60312 2.03169C3.89782 1.73699 4.29752 1.57143 4.71429 1.57143ZM19.6429 18.0714H14.9286C14.3034 18.0714 13.7039 18.3198 13.2618 18.7618C12.8198 19.2039 12.5714 19.8034 12.5714 20.4286V22H14.1429V20.4286C14.1429 20.2202 14.2256 20.0203 14.373 19.873C14.5203 19.7256 14.7202 19.6429 14.9286 19.6429H19.6429C19.8512 19.6429 20.0511 19.7256 20.1984 19.873C20.3458 20.0203 20.4286 20.2202 20.4286 20.4286V22H22V20.4286C22 19.8034 21.7517 19.2039 21.3096 18.7618C20.8676 18.3198 20.268 18.0714 19.6429 18.0714ZM14.1429 14.1429C14.1429 14.7645 14.3272 15.3721 14.6725 15.8889C15.0179 16.4058 15.5087 16.8086 16.083 17.0465C16.6573 17.2844 17.2892 17.3466 17.8989 17.2253C18.5085 17.1041 19.0685 16.8047 19.508 16.3652C19.9476 15.9257 20.2469 15.3657 20.3682 14.756C20.4895 14.1463 20.4272 13.5144 20.1893 12.9401C19.9515 12.3659 19.5486 11.875 19.0318 11.5297C18.515 11.1843 17.9073 11 17.2857 11C16.4522 11 15.6528 11.3311 15.0634 11.9205C14.474 12.5099 14.1429 13.3093 14.1429 14.1429ZM18.8571 14.1429C18.8571 14.4537 18.765 14.7575 18.5923 15.0159C18.4196 15.2743 18.1742 15.4757 17.8871 15.5947C17.5999 15.7136 17.284 15.7447 16.9791 15.6841C16.6743 15.6235 16.3943 15.4738 16.1745 15.254C15.9548 15.0343 15.8051 14.7543 15.7445 14.4494C15.6838 14.1446 15.715 13.8286 15.8339 13.5415C15.9528 13.2544 16.1543 13.0089 16.4127 12.8363C16.6711 12.6636 16.9749 12.5714 17.2857 12.5714C17.7025 12.5714 18.1022 12.737 18.3969 13.0317C18.6916 13.3264 18.8571 13.7261 18.8571 14.1429Z" fill="black"/>
</svg>
