<svg width="22" height="15" viewBox="0 0 22 15" fill="none" xmlns="http://www.w3.org/2000/svg">
<path d="M15.098 7.48804C16.9961 7.48804 18.5333 5.78947 18.5333 3.70016C18.5333 1.64274 17.0039 0 15.098 0C13.2157 0 11.6627 1.66667 11.6627 3.71611C11.6706 5.79745 13.2078 7.48804 15.098 7.48804ZM6.00784 7.67145C7.66275 7.67145 8.99608 6.18022 8.99608 4.33812C8.99608 2.54386 7.66275 1.0925 6.00784 1.0925C4.36863 1.0925 3.01176 2.56778 3.01961 4.34609C3.01961 6.1882 4.36078 7.67145 6.00784 7.67145ZM15.098 6.0925C14.0157 6.0925 13.098 5.05582 13.098 3.70813C13.098 2.40829 14.0078 1.39553 15.098 1.39553C16.1961 1.39553 17.098 2.39234 17.098 3.70016C17.098 5.03987 16.1882 6.0925 15.098 6.0925ZM6.00784 6.29187C5.12157 6.29187 4.36863 5.43062 4.36863 4.34609C4.36863 3.30941 5.11373 2.46411 6.00784 2.46411C6.91765 2.46411 7.6549 3.29346 7.6549 4.33812C7.6549 5.43062 6.90196 6.29187 6.00784 6.29187ZM1.69412 15H7.78824C7.35686 14.7448 7.06667 14.1627 7.12157 13.6364H1.62353C1.47451 13.6364 1.41176 13.5646 1.41176 13.429C1.41176 11.6029 3.51373 9.86443 6 9.86443C6.87843 9.86443 7.75686 10.0877 8.43137 10.4705C8.69804 10.0797 9.02745 9.74482 9.45882 9.45774C8.46275 8.83573 7.22353 8.5008 6 8.5008C2.68235 8.5008 0 10.9091 0 13.5566C0 14.5136 0.564706 15 1.69412 15ZM10.2118 15H19.9843C21.3412 15 22 14.5614 22 13.6204C22 11.4274 19.302 8.50877 15.098 8.50877C10.8941 8.50877 8.19608 11.4274 8.19608 13.6204C8.19608 14.5614 8.8549 15 10.2118 15ZM9.96078 13.6045C9.78039 13.6045 9.7098 13.5407 9.7098 13.3971C9.7098 12.177 11.6471 9.90431 15.098 9.90431C18.549 9.90431 20.4863 12.177 20.4863 13.3971C20.4863 13.5407 20.4157 13.6045 20.2275 13.6045H9.96078Z" fill="black"/>
</svg>
