<svg width="48" height="48" viewBox="0 0 48 48" fill="none" xmlns="http://www.w3.org/2000/svg">
<path d="M2 14.2875V8.0375C2 6.8875 2.38583 5.9275 3.1575 5.1575C3.9275 4.38583 4.8875 4 6.0375 4H42.9625C44.1125 4 45.0725 4.38583 45.8425 5.1575C46.6142 5.9275 47 6.8875 47 8.0375V20.5375C47 20.8942 46.8808 21.1917 46.6425 21.43C46.4025 21.6683 46.105 21.7875 45.75 21.7875C45.395 21.7875 45.0975 21.6683 44.8575 21.43C44.6192 21.1933 44.5 20.8958 44.5 20.5375V8.0375C44.5 7.65417 44.34 7.30167 44.02 6.98C43.6983 6.66 43.3458 6.5 42.9625 6.5H6.0375C5.65417 6.5 5.30167 6.66 4.98 6.98C4.66 7.30167 4.5 7.65417 4.5 8.0375V14.2875H2ZM12 32.75C11.7333 32.75 11.5042 32.7 11.3125 32.6C11.1208 32.5 10.9683 32.3317 10.855 32.095L6.22 22.75H3.265C2.90833 22.75 2.61083 22.6308 2.3725 22.3925C2.13417 22.1525 2.015 21.855 2.015 21.5C2.015 21.145 2.13417 20.8475 2.3725 20.6075C2.61083 20.3692 2.90833 20.25 3.265 20.25H7.015C7.24833 20.25 7.45917 20.3108 7.6475 20.4325C7.83583 20.5542 7.98583 20.7275 8.0975 20.9525L12 28.7125L20.855 10.9525C20.9683 10.7592 21.1292 10.615 21.3375 10.52C21.5458 10.4233 21.7667 10.375 22 10.375C22.2333 10.375 22.4467 10.4233 22.64 10.52C22.8317 10.615 22.9833 10.7592 23.095 10.9525L28.0525 20.8175L26.9775 21.605C26.6275 21.8633 26.305 22.1458 26.01 22.4525L21.95 14.3375L13.0925 32.095C12.9808 32.3283 12.8292 32.4958 12.6375 32.5975C12.4458 32.6992 12.2333 32.75 12 32.75ZM21.86 39H6.0375C4.8875 39 3.9275 38.615 3.1575 37.845C2.38583 37.0733 2 36.1125 2 34.9625V28.7125H4.5V34.9625C4.5 35.3458 4.66 35.6983 4.98 36.02C5.30167 36.34 5.65417 36.5 6.0375 36.5H21.225C21.3183 36.9583 21.41 37.3875 21.5 37.7875C21.59 38.1875 21.71 38.5917 21.86 39ZM37 44C34.215 44 31.8517 43.03 29.91 41.09C27.9683 39.15 26.9983 36.7867 27 34C27 31.215 27.97 28.8517 29.91 26.91C31.85 24.9683 34.2133 23.9983 37 24C39.785 24 42.1483 24.97 44.09 26.91C46.0317 28.85 47.0017 31.2133 47 34C47 36.785 46.03 39.1483 44.09 41.09C42.15 43.0317 39.7867 44.0017 37 44ZM41.64 30.725C41.825 30.54 41.925 30.3208 41.94 30.0675C41.9567 29.8142 41.8567 29.5783 41.64 29.36C41.4533 29.175 41.2258 29.0825 40.9575 29.0825C40.6875 29.0825 40.46 29.175 40.275 29.36L36.8175 32.8025C36.6308 32.9892 36.53 33.2108 36.515 33.4675C36.4983 33.7258 36.5983 33.9642 36.815 34.1825C37.0017 34.3692 37.2325 34.4625 37.5075 34.4625C37.7825 34.4625 38.0125 34.3692 38.1975 34.1825L41.64 30.725Z" fill="white"/>
</svg>
