<svg width="48" height="48" viewBox="0 0 48 48" fill="none" xmlns="http://www.w3.org/2000/svg">
<path d="M28.1235 11.8837C29.8827 11.8837 31.3513 10.3005 31.3513 8.44186C31.3513 7.52902 31.0113 6.65357 30.4059 6.0081C29.8006 5.36262 28.9796 5 28.1235 5C26.3321 5 24.8957 6.51442 24.8957 8.44186C24.8957 10.3005 26.3321 11.8837 28.1235 11.8837ZM22.2973 35.7702L23.9112 28.2326L27.3166 31.6744V42H30.5444V29.093L27.139 25.6512L28.1235 20.4884C29.2287 21.8404 30.5929 22.924 32.1241 23.6662C33.6553 24.4084 35.318 24.7918 37 24.7907V21.3488C33.9174 21.3488 31.3513 19.6279 30.0441 17.1842L28.4302 14.4651C27.7846 13.3981 26.8163 12.7442 25.7027 12.7442C25.2024 12.7442 24.8957 12.8819 24.3954 12.8819L16.0192 16.6679V24.7907H19.2471V18.9051L22.1359 17.7005L19.5537 31.6744L11.6456 29.9535L11 33.3953L22.2973 35.7702Z" fill="white"/>
</svg>
