<svg width="48" height="48" viewBox="0 0 48 48" fill="none" xmlns="http://www.w3.org/2000/svg">
<path d="M2 37V24.7273C2 24.0007 2.20859 23.2267 2.62578 22.4053C3.04296 21.5838 3.64919 20.9669 4.44444 20.5545V14.9091C4.44444 13.5247 4.91459 12.3605 5.85489 11.4163C6.79519 10.4721 7.95467 10 9.33333 10H20.3333C21.1759 10 21.8953 10.1743 22.4918 10.5228C23.0866 10.8697 23.5893 11.35 24 11.9636C24.4107 11.35 24.9134 10.8697 25.5082 10.5228C26.1047 10.1743 26.8241 10 27.6667 10H38.6667C40.0453 10 41.2048 10.4721 42.1451 11.4163C43.0854 12.3605 43.5556 13.5247 43.5556 14.9091V20.5545C44.3508 20.9669 44.957 21.5838 45.3742 22.4053C45.7914 23.2267 46 24.0007 46 24.7273V37H43.5556V32.0909H4.44444V37H2ZM25.2222 19.8182H41.1111V14.9091C41.1111 14.2136 40.8764 13.6311 40.4071 13.1615C39.9378 12.6918 39.3576 12.4562 38.6667 12.4545H27.6667C26.9741 12.4545 26.3939 12.6902 25.9262 13.1615C25.4585 13.6327 25.2239 14.2153 25.2222 14.9091V19.8182ZM6.88889 19.8182H22.7778V14.9091C22.7778 14.2136 22.5431 13.6311 22.0738 13.1615C21.6044 12.6918 21.0243 12.4562 20.3333 12.4545H9.33333C8.64074 12.4545 8.06059 12.6902 7.59289 13.1615C7.12519 13.6327 6.89052 14.2153 6.88889 14.9091V19.8182ZM4.44444 29.6364H43.5556V24.7273C43.5556 24.0318 43.3209 23.4493 42.8516 22.9796C42.3822 22.51 41.8021 22.2744 41.1111 22.2727H6.88889C6.1963 22.2727 5.61615 22.5084 5.14844 22.9796C4.68074 23.4509 4.44607 24.0335 4.44444 24.7273V29.6364Z" fill="white"/>
</svg>
