<svg width="48" height="48" viewBox="0 0 48 48" fill="none" xmlns="http://www.w3.org/2000/svg">
<g clip-path="url(#clip0_1406_11)">
<path d="M12.5333 24.472L20.528 18.6667L12.5333 12.8613L11.16 14.7813L16.4987 18.6667L11.16 22.5547L12.5333 24.472ZM35.4667 24.472L36.84 22.552L31.5013 18.6667L36.84 14.7787L35.4667 12.8613L27.472 18.6667L35.4667 24.472ZM20 36.3387L24 32.3387L28 36.3387L32 32.3387L34.6 34.9387L36.272 33.2667L32 28.9947L28 32.9947L24 28.9947L20 32.9947L16 28.9947L11.728 33.2667L13.4 34.9387L16 32.3387L20 36.3387ZM24.008 48C20.6907 48 17.5707 47.3707 14.648 46.112C11.7271 44.8516 9.18578 43.1413 7.024 40.9813C4.86222 38.8231 3.15111 36.2844 1.89067 33.3653C0.630222 30.4462 0 27.3271 0 24.008C0 20.6907 0.629333 17.5707 1.888 14.648C3.14844 11.7271 4.85867 9.18578 7.01867 7.024C9.17689 4.86222 11.7156 3.15111 14.6347 1.89067C17.5538 0.630222 20.6729 0 23.992 0C27.3093 0 30.4293 0.629333 33.352 1.888C36.2729 3.14844 38.8142 4.85867 40.976 7.01867C43.1378 9.17689 44.8489 11.7156 46.1093 14.6347C47.3698 17.5538 48 20.6729 48 23.992C48 27.3093 47.3707 30.4293 46.112 33.352C44.8516 36.2729 43.1413 38.8142 40.9813 40.976C38.8231 43.1378 36.2844 44.8489 33.3653 46.1093C30.4462 47.3698 27.3271 48 24.008 48ZM24 45.3333C29.9556 45.3333 35 43.2667 39.1333 39.1333C43.2667 35 45.3333 29.9556 45.3333 24C45.3333 18.0444 43.2667 13 39.1333 8.86667C35 4.73333 29.9556 2.66667 24 2.66667C18.0444 2.66667 13 4.73333 8.86667 8.86667C4.73333 13 2.66667 18.0444 2.66667 24C2.66667 29.9556 4.73333 35 8.86667 39.1333C13 43.2667 18.0444 45.3333 24 45.3333Z" fill="white"/>
</g>
<defs>
<clipPath id="clip0_1406_11">
<rect width="48" height="48" fill="white"/>
</clipPath>
</defs>
</svg>
