<svg width="48" height="48" viewBox="0 0 48 48" fill="none" xmlns="http://www.w3.org/2000/svg">
<path d="M24 16.3752C24.3978 16.3752 24.7794 16.5201 25.0607 16.7779C25.342 17.0358 25.5 17.3855 25.5 17.7502V31.6737C26.914 32.0084 28.1463 32.8043 28.9659 33.9122C29.7855 35.0202 30.1362 36.3641 29.9522 37.6922C29.7682 39.0202 29.0621 40.2411 27.9663 41.126C26.8706 42.011 25.4604 42.4992 24 42.4992C22.5396 42.4992 21.1294 42.011 20.0337 41.126C18.9379 40.2411 18.2318 39.0202 18.0478 37.6922C17.8638 36.3641 18.2145 35.0202 19.0341 33.9122C19.8537 32.8043 21.086 32.0084 22.5 31.6737V17.7502C22.5 17.3855 22.658 17.0358 22.9393 16.7779C23.2206 16.5201 23.6022 16.3752 24 16.3752ZM24 4C21.6131 4 19.3239 4.86921 17.636 6.41641C15.9482 7.96361 15 10.0621 15 12.2501V29.7239C13.4725 31.3116 12.4772 33.2696 12.1336 35.363C11.79 37.4564 12.1126 39.5962 13.0628 41.5257C14.0129 43.4552 15.5502 45.0924 17.4903 46.2408C19.4303 47.3892 21.6906 48 24 48C26.3094 48 28.5697 47.3892 30.5097 46.2408C32.4498 45.0924 33.9871 43.4552 34.9372 41.5257C35.8874 39.5962 36.21 37.4564 35.8664 35.363C35.5228 33.2696 34.5275 31.3116 33 29.7239V12.2501C33 10.0621 32.0518 7.96361 30.364 6.41641C28.6761 4.86921 26.3869 4 24 4ZM24 6.75004C25.5913 6.75004 27.1174 7.32951 28.2426 8.36098C29.3679 9.39245 30 10.7914 30 12.2501V30.8267L30.429 31.2254C31.6692 32.3859 32.508 33.8561 32.8403 35.4518C33.1727 37.0475 32.9837 38.6976 32.2971 40.1952C31.6105 41.6928 30.4569 42.9713 28.9809 43.8704C27.5049 44.7694 25.7722 45.249 24 45.249C22.2278 45.249 20.4951 44.7694 19.0191 43.8704C17.5431 42.9713 16.3895 41.6928 15.7029 40.1952C15.0163 38.6976 14.8273 37.0475 15.1597 35.4518C15.492 33.8561 16.3308 32.3859 17.571 31.2254L18 30.8267V12.2501C18 10.7914 18.6321 9.39245 19.7574 8.36098C20.8826 7.32951 22.4087 6.75004 24 6.75004Z" fill="white"/>
</svg>
