<svg width="52" height="52" viewBox="0 0 52 52" fill="none" xmlns="http://www.w3.org/2000/svg">
<path d="M26 49.9688C12.7563 49.9688 2.03125 39.2437 2.03125 26C2.03125 12.7563 12.7563 2.03125 26 2.03125C39.2437 2.03125 49.9688 12.7563 49.9688 26C49.9688 39.2437 39.2437 49.9688 26 49.9688ZM26 3.53437C13.5891 3.53437 3.53437 13.5891 3.53437 26C3.53437 38.4109 13.5891 48.4656 26 48.4656C38.4109 48.4656 48.4656 38.4109 48.4656 26C48.4656 13.5891 38.4109 3.53437 26 3.53437Z" fill="white"/>
<path d="M41.9047 20.5765L41.7016 20.7797C41.4578 21.0234 41.0922 21.0234 40.8484 20.7797L40.1375 20.0687L30.5703 29.6562C31.1391 32.6625 30.2656 35.8922 27.9297 38.2281C24.1922 41.9656 18.1187 41.9656 14.3609 38.2281C10.6234 34.4906 10.6234 28.4172 14.3609 24.6594C16.6969 22.3234 19.9266 21.45 22.9328 22.0187L32.5203 12.4312L31.9516 11.8625C31.7078 11.6187 31.7078 11.2531 31.9516 11.0094L32.1547 10.8062C32.3984 10.5625 32.7641 10.5625 33.0078 10.8062L41.9047 19.7031C42.1484 19.9672 42.1484 20.3328 41.9047 20.5765ZM23.4 23.6844C20.6578 22.8922 17.5703 23.5625 15.4172 25.7359C12.2484 28.9047 12.2484 34.0234 15.4172 37.1719C18.5859 40.3406 23.7047 40.3406 26.8531 37.1719C29.0062 35.0187 29.6969 31.9312 28.9047 29.189L39.0812 19.0125L33.5766 13.5078L23.4 23.6844ZM30.4687 24.2531C30.1234 24.5984 29.5547 24.5984 29.1891 24.2531C28.8437 23.9078 28.8437 23.339 29.1891 22.9734C29.5344 22.6281 30.1031 22.6281 30.4687 22.9734C30.8141 23.339 30.8141 23.9078 30.4687 24.2531ZM23.0547 36.7453C22.7094 36.4 22.7094 35.8312 23.0547 35.4656C23.4 35.1203 23.9687 35.1203 24.3344 35.4656C24.6797 35.8109 24.6797 36.3797 24.3344 36.7453C23.9687 37.1109 23.4 37.1109 23.0547 36.7453ZM19.0328 30.1844C18.0984 29.25 18.0984 27.7265 19.0328 26.7922C19.9672 25.8578 21.4906 25.8578 22.425 26.7922C23.3594 27.7265 23.3594 29.25 22.425 30.1844C21.4703 31.1187 19.9672 31.1187 19.0328 30.1844ZM21.775 27.4422C21.1859 26.8531 20.2312 26.8531 19.6625 27.4422C19.0734 28.0312 19.0734 28.9859 19.6625 29.5547C20.2516 30.1437 21.2062 30.1437 21.775 29.5547C22.364 28.9656 22.364 28.0109 21.775 27.4422Z" fill="white"/>
</svg>
