<svg width="20" height="20" viewBox="0 0 20 20" fill="none" xmlns="http://www.w3.org/2000/svg">
<path d="M10 10C9.81056 10 9.62888 10.0753 9.49492 10.2092C9.36097 10.3432 9.28571 10.5248 9.28571 10.7143V15C9.28571 15.1894 9.36097 15.3711 9.49492 15.5051C9.62888 15.639 9.81056 15.7143 10 15.7143C10.1894 15.7143 10.3711 15.639 10.5051 15.5051C10.639 15.3711 10.7143 15.1894 10.7143 15V10.7143C10.7143 10.5248 10.639 10.3432 10.5051 10.2092C10.3711 10.0753 10.1894 10 10 10ZM4.28571 7.85714C4.28571 7.6677 4.36097 7.48602 4.49492 7.35207C4.62888 7.21811 4.81056 7.14286 5 7.14286C5.18944 7.14286 5.37112 7.21811 5.50508 7.35207C5.63903 7.48602 5.71429 7.6677 5.71429 7.85714V15C5.71429 15.1894 5.63903 15.3711 5.50508 15.5051C5.37112 15.639 5.18944 15.7143 5 15.7143C4.81056 15.7143 4.62888 15.639 4.49492 15.5051C4.36097 15.3711 4.28571 15.1894 4.28571 15V7.85714ZM15 4.28571C14.8106 4.28571 14.6289 4.36097 14.4949 4.49492C14.361 4.62888 14.2857 4.81056 14.2857 5V15C14.2857 15.1894 14.361 15.3711 14.4949 15.5051C14.6289 15.639 14.8106 15.7143 15 15.7143C15.1894 15.7143 15.3711 15.639 15.5051 15.5051C15.639 15.3711 15.7143 15.1894 15.7143 15V5C15.7143 4.81056 15.639 4.62888 15.5051 4.49492C15.3711 4.36097 15.1894 4.28571 15 4.28571ZM0 2.85714C0 2.09938 0.301019 1.37266 0.836838 0.836838C1.37266 0.301019 2.09938 0 2.85714 0H17.1429C17.9006 0 18.6273 0.301019 19.1632 0.836838C19.699 1.37266 20 2.09938 20 2.85714V17.1429C20 17.9006 19.699 18.6273 19.1632 19.1632C18.6273 19.699 17.9006 20 17.1429 20H2.85714C2.09938 20 1.37266 19.699 0.836838 19.1632C0.301019 18.6273 0 17.9006 0 17.1429V2.85714ZM1.42857 2.85714V17.1429C1.42857 17.5217 1.57908 17.8851 1.84699 18.153C2.1149 18.4209 2.47826 18.5714 2.85714 18.5714H17.1429C17.5217 18.5714 17.8851 18.4209 18.153 18.153C18.4209 17.8851 18.5714 17.5217 18.5714 17.1429V2.85714C18.5714 2.47826 18.4209 2.1149 18.153 1.84699C17.8851 1.57908 17.5217 1.42857 17.1429 1.42857H2.85714C2.47826 1.42857 2.1149 1.57908 1.84699 1.84699C1.57908 2.1149 1.42857 2.47826 1.42857 2.85714Z" fill="black"/>
</svg>
